<?xml version="1.0" standalone="no"?>
<!DOCTYPE svg PUBLIC "-//W3C//DTD SVG 20010904//EN"
 "http://www.w3.org/TR/2001/REC-SVG-20010904/DTD/svg10.dtd">
<svg version="1.0" xmlns="http://www.w3.org/2000/svg"
 width="1080.000000pt" height="788.000000pt" viewBox="0 0 1080.000000 788.000000"
 preserveAspectRatio="xMidYMid meet">

<g transform="translate(0.000000,788.000000) scale(0.100000,-0.100000)"
fill="#000000" stroke="none">
<path d="M7645 5883 c-11 -3 -24 -9 -29 -14 -6 -5 -74 -9 -152 -9 -208 0 -373
-35 -506 -107 -110 -59 -201 -178 -215 -280 l-6 -46 29 6 c133 27 238 31 422
13 149 -15 199 -16 246 -7 33 6 61 10 62 8 2 -2 -8 -37 -23 -78 -66 -186 -1
-346 172 -425 31 -14 53 -30 50 -35 -4 -5 -117 -9 -263 -9 -229 0 -261 -2
-298 -19 -79 -36 -104 -98 -104 -261 0 -129 10 -171 49 -213 44 -48 59 -52
216 -57 l150 -5 3 -28 c4 -34 -13 -57 -42 -57 -11 0 -59 -14 -106 -30 -46 -17
-90 -30 -98 -30 -7 0 -28 11 -45 24 -59 44 -141 78 -227 96 l-85 17 -10 52
c-5 29 -14 51 -20 51 -5 -1 -26 -22 -45 -48 -34 -44 -85 -80 -97 -68 -3 2 13
26 35 53 57 69 75 109 74 169 0 57 -25 114 -76 177 -33 41 -131 117 -151 117
-7 0 -15 -23 -19 -56 -11 -96 -62 -210 -119 -268 -62 -63 -73 -47 -27 44 45
90 65 188 51 247 -17 66 -41 95 -108 130 -104 55 -98 59 -98 -65 0 -87 -4
-114 -20 -147 -11 -22 -27 -40 -35 -40 -16 0 -16 2 -4 140 13 152 -16 175
-233 194 -67 6 -134 16 -148 21 -45 17 -52 13 -59 -37 -3 -27 -20 -95 -36
-152 -17 -57 -30 -116 -30 -131 0 -41 33 -75 105 -109 36 -17 65 -35 65 -41 0
-17 -64 -11 -104 11 -46 24 -50 21 -67 -60 -11 -52 -8 -109 7 -158 5 -20 3
-23 -21 -23 -45 0 -146 -30 -215 -63 -94 -46 -206 -159 -253 -257 -52 -107
-67 -176 -67 -307 l0 -113 -181 0 c-167 0 -183 2 -210 21 -16 11 -29 26 -29
33 0 7 99 158 221 337 121 178 235 349 252 379 l32 55 0 160 c0 152 -1 162
-25 205 -36 63 -86 90 -173 90 -79 0 -101 9 -122 50 -14 27 -14 30 6 40 15 9
34 8 72 -1 107 -26 263 -7 366 46 64 32 122 81 171 144 42 53 42 54 30 95 -7
22 -25 66 -40 96 -19 38 -25 61 -19 75 16 40 10 101 -13 135 -40 58 -72 75
-141 75 -58 0 -67 3 -138 51 -126 84 -270 118 -328 78 -25 -18 -71 -107 -71
-138 0 -20 5 -21 -105 18 -105 38 -235 33 -235 -8 0 -9 -19 -15 -58 -19 -74
-6 -138 -38 -163 -81 -11 -19 -33 -39 -49 -46 -30 -13 -100 -82 -100 -100 0
-5 -11 -25 -25 -45 -13 -20 -38 -73 -55 -118 -44 -114 -77 -172 -122 -213 -48
-43 -64 -44 -38 -1 26 42 25 86 -3 128 -31 46 -62 61 -120 56 -172 -14 -199
-250 -41 -343 38 -23 63 -29 130 -32 l83 -4 -17 -32 c-12 -23 -17 -64 -20
-156 -4 -142 5 -194 45 -241 48 -57 75 -63 311 -64 117 -1 215 -5 218 -8 6 -5
-44 -80 -249 -377 l-72 -104 -83 -13 c-46 -7 -92 -18 -104 -24 -16 -9 -24 -7
-44 12 -13 12 -24 25 -24 29 0 3 27 42 59 85 79 104 93 167 53 241 -15 29
-112 100 -191 142 -115 60 -170 39 -285 -109 -38 -49 -70 -89 -71 -89 -2 0
-27 33 -57 73 -31 39 -67 84 -82 99 -21 20 -27 34 -24 60 l3 33 66 5 c88 7
130 35 169 115 36 73 56 146 47 169 -6 16 -16 17 -79 11 -90 -9 -145 -28 -180
-62 -17 -16 -31 -23 -36 -17 -5 5 -21 42 -36 82 -48 126 -157 249 -273 309
-29 16 -53 31 -53 34 0 4 13 20 28 37 34 37 52 92 52 161 l0 53 -32 -7 c-137
-30 -196 -65 -228 -138 l-18 -40 -165 -1 -164 -1 -26 48 c-15 26 -31 47 -36
47 -6 0 -18 -27 -27 -61 -13 -45 -23 -64 -41 -72 -13 -5 -25 -8 -28 -6 -2 3 7
36 20 75 29 83 30 106 6 159 -24 54 -89 110 -174 151 -81 39 -102 42 -92 17
43 -115 21 -326 -41 -384 -21 -19 -24 -20 -30 -6 -3 9 1 56 10 104 37 204 5
313 -105 357 -46 19 -184 40 -205 32 -10 -4 -5 -23 24 -83 43 -92 56 -202 28
-238 -15 -19 -17 -19 -30 -2 -7 10 -19 51 -25 92 -22 147 -64 205 -151 205
-27 0 -100 -11 -164 -25 -64 -14 -141 -25 -172 -25 l-57 0 8 -42 c4 -24 10
-113 14 -198 8 -210 14 -217 181 -229 100 -7 120 -13 120 -35 0 -40 -151 -53
-234 -22 -26 10 -49 16 -51 14 -11 -11 39 -179 72 -241 81 -154 202 -174 401
-67 40 22 76 40 78 40 2 0 -18 -29 -46 -64 -45 -57 -55 -65 -110 -80 -32 -9
-82 -20 -110 -23 -27 -3 -50 -9 -50 -13 0 -5 25 -31 56 -60 l57 -51 -39 -117
c-21 -64 -39 -118 -40 -120 0 -1 -21 7 -45 18 -92 41 -189 15 -301 -81 -94
-82 -94 -82 9 -132 136 -65 234 -64 310 5 24 23 22 27 43 -72 20 -88 75 -184
142 -245 l60 -54 -29 -14 c-48 -26 -123 -119 -123 -154 0 -11 118 -33 178 -33
28 0 64 8 87 20 22 11 41 20 42 20 2 0 3 -53 3 -117 0 -136 14 -178 73 -230
59 -52 93 -55 592 -51 500 3 483 1 542 72 l28 35 65 -41 c50 -32 78 -43 119
-46 77 -7 108 14 198 131 l76 99 25 -25 c21 -22 25 -35 27 -96 1 -40 5 -75 9
-78 3 -4 19 6 35 21 23 22 30 24 40 13 9 -11 7 -20 -8 -38 -64 -82 -68 -162
-16 -265 19 -38 50 -85 67 -104 50 -53 108 -101 117 -96 5 3 11 28 14 55 12
102 126 286 188 306 34 11 33 -2 -3 -57 -40 -61 -83 -164 -93 -224 -13 -84 34
-175 121 -232 26 -18 52 -32 58 -32 7 0 17 34 23 75 13 80 38 138 72 169 39
35 45 6 16 -65 -15 -35 -29 -91 -32 -125 -8 -92 6 -111 129 -174 57 -29 114
-61 127 -72 32 -24 36 -23 51 12 7 17 39 72 71 122 33 50 60 99 60 107 3 42
-6 60 -52 103 -73 66 -50 89 29 30 19 -14 37 -21 42 -16 5 5 25 40 44 77 29
55 36 80 36 126 0 85 -34 132 -155 216 -18 12 -18 14 -3 20 40 16 179 -77 231
-155 16 -24 17 -24 31 -7 8 10 22 50 31 88 l17 69 197 0 196 0 90 -39 c121
-52 240 -81 358 -88 53 -3 97 -9 97 -13 0 -4 -7 -27 -16 -51 -10 -29 -14 -61
-10 -92 6 -52 49 -157 64 -157 6 0 40 29 76 64 88 84 110 138 92 226 l-7 36
72 17 c81 20 214 79 284 127 25 17 75 58 109 91 35 32 66 59 70 59 3 0 30 -16
59 -35 104 -69 272 -105 399 -85 131 20 217 58 317 139 l43 35 25 -29 c14 -17
43 -67 65 -111 112 -230 14 -463 -195 -464 -74 0 -121 22 -153 70 -69 104 -18
240 89 240 25 0 54 -8 72 -20 37 -25 67 -25 88 -2 36 40 15 85 -56 118 -155
72 -318 -27 -343 -208 -8 -55 17 -149 52 -195 29 -39 29 -39 1 -47 -58 -14
-112 -83 -147 -185 -32 -97 -34 -95 68 -88 48 3 108 13 134 22 58 21 124 89
133 139 l7 36 59 0 c257 0 417 266 330 550 -29 93 -46 128 -106 209 -46 62
-47 67 -35 95 65 160 64 153 64 306 1 157 -7 196 -65 312 -16 32 -29 62 -29
67 0 9 117 51 141 51 5 0 9 -200 9 -470 0 -453 1 -472 20 -510 11 -22 39 -52
62 -67 40 -27 46 -28 200 -31 l158 -3 0 -78 c0 -43 3 -80 6 -83 3 -3 27 9 54
27 76 51 154 77 252 82 72 5 92 3 114 -12 40 -26 17 -38 -93 -52 -121 -15
-184 -38 -239 -86 -51 -45 -68 -94 -59 -165 8 -57 44 -172 54 -172 4 0 21 19
37 43 57 80 184 141 184 87 0 -12 -21 -33 -59 -59 -139 -94 -143 -137 -27
-291 31 -41 67 -99 81 -127 14 -29 28 -53 32 -53 3 0 27 13 52 29 25 16 70 39
99 50 168 66 190 109 137 267 -14 41 -25 81 -25 90 0 30 35 9 59 -36 20 -35
26 -63 29 -132 3 -61 8 -88 17 -88 15 0 83 49 115 84 21 24 25 37 24 89 0 74
-29 140 -104 243 -28 38 -50 74 -50 81 0 39 87 -24 139 -101 36 -53 71 -147
71 -191 0 -48 18 -45 72 13 95 102 132 187 110 260 -17 57 -85 128 -180 189
-46 30 -82 59 -79 66 6 19 53 20 93 1 50 -24 140 -108 170 -160 14 -24 29 -44
34 -44 31 0 54 192 30 256 -14 35 -8 39 29 20 88 -46 300 -62 414 -32 138 38
249 120 308 229 29 53 34 72 34 133 0 62 -3 75 -29 108 -34 45 -102 79 -204
102 -103 23 -135 14 -200 -52 -58 -59 -88 -67 -131 -38 -64 45 -69 187 -9 252
36 38 82 30 129 -21 65 -72 129 -80 279 -35 118 36 160 85 160 186 0 76 -20
132 -71 199 -22 29 -35 53 -30 53 16 0 24 40 11 55 -9 11 -25 13 -65 9 -32 -4
-55 -2 -59 4 -3 6 8 32 25 58 22 31 34 63 37 95 4 44 2 49 -22 60 -32 15 -92
0 -148 -36 -32 -22 -38 -22 -49 -9 -10 12 -10 19 -1 32 48 65 51 131 8 171
-16 15 -24 34 -24 57 0 46 -24 80 -67 94 -46 15 -102 -2 -117 -36 -12 -26 -24
-30 -103 -37 -42 -4 -54 -1 -78 19 -33 27 -75 31 -116 9 -35 -18 -51 -55 -50
-120 0 -27 -3 -71 -6 -96 -6 -40 -3 -49 20 -77 14 -17 41 -41 60 -52 36 -23
50 -59 18 -45 -10 4 -52 10 -94 12 -74 5 -78 4 -94 -20 -21 -33 -12 -53 58
-124 54 -56 53 -60 -13 -65 -40 -3 -52 -29 -26 -57 14 -15 13 -19 -8 -46 l-24
-30 -7 60 c-4 33 -14 72 -21 87 -13 26 -53 63 -77 71 -7 2 1 15 20 31 18 15
47 56 64 92 29 58 31 70 27 136 -10 152 -108 254 -256 266 -57 4 -65 7 -73 31
-11 29 -54 77 -84 94 -13 8 -95 14 -220 17 l-200 5 67 22 c37 12 89 36 116 53
27 16 58 30 69 30 67 0 244 70 288 114 32 32 33 71 1 92 -21 13 -23 19 -14 39
26 57 -23 103 -80 74 -15 -7 -30 -15 -34 -17 -5 -2 -8 7 -8 20 0 50 -51 64
-89 25 -12 -13 -42 -73 -67 -133 -25 -60 -50 -113 -55 -118 -13 -15 -34 9
-117 131 l-77 115 0 162 c0 155 -1 163 -27 211 -33 63 -80 108 -140 135 -49
21 -120 32 -153 23z m-71 -98 c-5 -41 -2 -72 11 -116 10 -32 15 -62 11 -66
-10 -10 -147 -21 -286 -23 -63 0 -153 -7 -200 -14 -47 -7 -87 -12 -88 -10 -2
1 10 10 28 19 35 18 62 70 53 104 -7 27 -51 51 -95 51 -99 0 152 89 292 103
19 2 90 5 158 5 l122 2 -6 -55z m167 18 c35 -19 64 -43 84 -71 28 -41 30 -50
30 -135 0 -103 -19 -158 -79 -231 -18 -23 -45 -64 -59 -92 -14 -28 -36 -58
-49 -66 -58 -38 -133 -30 -179 18 -22 23 -22 27 -11 81 18 89 51 157 84 179
16 10 41 38 55 62 26 43 26 44 9 100 -16 57 -21 102 -18 155 2 24 6 27 40 27
22 0 62 -12 93 -27z m-2689 -78 c175 -71 374 -276 442 -457 10 -25 15 -51 12
-57 -4 -5 -32 -20 -64 -33 -50 -19 -75 -22 -202 -23 -132 0 -149 2 -187 23
-24 12 -43 27 -43 33 0 6 -8 9 -17 7 -34 -6 -18 -33 37 -60 82 -42 199 -55
315 -34 49 8 91 13 93 11 7 -7 -77 -57 -87 -51 -5 4 -45 -6 -88 -21 -65 -22
-95 -27 -183 -27 -58 0 -112 2 -120 5 -54 19 -99 44 -123 67 l-29 27 7 -36 c6
-33 5 -37 -19 -41 -14 -3 -29 -1 -34 4 -11 11 -25 -28 -42 -118 -17 -89 -13
-99 39 -99 34 0 47 -5 59 -23 14 -22 14 -23 -17 -35 -35 -13 -38 -21 -16 -43
55 -55 -57 -52 -123 3 -55 46 -66 140 -33 278 11 44 18 82 16 83 -8 8 -26 -11
-39 -43 -14 -33 -15 -33 -100 -40 -47 -4 -121 -3 -163 1 -76 9 -78 10 -83 38
-5 29 -30 50 -30 24 0 -25 21 -192 26 -215 5 -19 13 -23 42 -23 36 0 72 -23
72 -46 0 -7 -13 -15 -30 -19 -33 -7 -37 -16 -15 -35 24 -20 18 -40 -11 -40
-42 0 -115 42 -140 80 -27 41 -64 175 -64 232 0 42 -15 51 -24 15 -5 -23 -52
-56 -163 -117 -23 -13 -40 -26 -38 -30 9 -15 -16 -32 -56 -37 -40 -5 -42 -4
-25 9 18 14 16 16 -30 22 -63 9 -114 26 -138 46 -92 77 -37 240 81 240 59 0
103 -41 103 -94 0 -49 -28 -76 -80 -76 -49 0 -70 28 -49 66 10 20 49 35 49 20
0 -2 3 -11 6 -20 4 -11 1 -16 -10 -16 -9 0 -16 -4 -16 -10 0 -5 11 -10 25 -10
33 0 45 42 20 70 -38 42 -115 6 -115 -54 0 -40 37 -84 80 -97 62 -19 113 1
178 68 28 30 52 59 52 64 0 17 130 224 162 259 95 102 211 169 337 196 70 15
190 17 255 6 l39 -7 2 -70 c2 -69 20 -145 34 -145 4 0 4 26 0 58 -13 117 17
297 60 346 36 42 101 42 203 1z m-381 -104 c30 -12 64 -28 75 -35 17 -13 7
-14 -86 -9 -226 12 -400 -53 -550 -206 -35 -36 -57 -55 -47 -41 9 14 26 41 37
62 20 38 59 70 104 88 16 6 31 22 37 39 15 42 78 71 156 71 56 0 61 2 67 24 3
14 14 27 24 30 33 10 127 -2 183 -23z m725 -31 c37 -23 70 -95 59 -129 -10
-33 -25 -25 -25 14 0 31 -3 35 -25 35 -24 0 -30 9 -26 38 1 6 -9 12 -22 12
-13 0 -34 11 -47 25 l-23 25 38 0 c21 0 52 -9 71 -20z m2194 -28 c0 -14 -42
-48 -90 -73 -52 -27 -120 -29 -440 -14 -177 8 -183 9 -140 22 126 37 248 53
438 58 107 2 197 7 200 10 8 8 32 6 32 -3z m-5868 -56 c143 -33 174 -106 142
-331 -17 -115 -17 -127 -2 -141 61 -61 135 115 125 298 l-5 97 41 -21 c73 -37
127 -78 154 -119 22 -33 25 -47 21 -96 -2 -34 -14 -78 -28 -106 -23 -45 -32
-52 -115 -92 -49 -24 -126 -63 -171 -88 l-81 -44 -37 34 -38 35 20 46 c24 58
52 189 52 248 0 48 -18 145 -30 157 -4 4 -5 -36 -2 -90 5 -114 -10 -219 -41
-287 l-22 -48 -65 59 c-36 32 -90 78 -120 101 -30 23 -59 45 -65 50 -70 57
-282 188 -290 180 -3 -2 50 -42 117 -89 121 -84 304 -228 366 -289 33 -32 34
-32 13 -46 -76 -54 -211 -98 -334 -109 -42 -4 -77 -11 -77 -16 0 -14 118 -10
195 6 70 15 205 73 237 102 17 15 21 13 54 -21 31 -31 33 -38 22 -54 -22 -31
-105 -102 -118 -102 -7 0 -44 -20 -84 -44 -39 -24 -93 -52 -121 -61 -65 -22
-151 -23 -191 -2 -38 20 -99 108 -123 180 -18 51 -35 127 -29 127 2 0 25 -7
52 -15 90 -27 193 -14 221 29 33 50 -6 76 -113 76 -82 0 -133 13 -158 41 -16
18 -20 43 -25 188 -3 91 -9 174 -14 184 -6 15 -1 17 51 17 33 0 106 11 164 25
114 27 155 30 194 16 39 -15 74 -86 87 -176 15 -99 32 -137 62 -133 36 5 48
44 44 138 -2 68 -9 96 -30 138 -15 30 -27 56 -27 58 0 8 67 3 122 -10z m1208
-293 c0 -52 -22 -107 -56 -141 -29 -29 -39 -33 -66 -28 -17 3 -34 9 -37 12 -3
3 13 22 37 42 41 36 51 52 33 52 -5 0 -31 -18 -57 -40 -57 -47 -84 -52 -84
-15 0 43 64 102 134 124 85 27 96 27 96 -6z m-628 -113 c2 -19 -2 -26 -19 -28
-27 -4 -26 -5 -12 37 12 35 27 31 31 -9z m291 -40 c105 -12 250 -58 330 -103
136 -78 245 -226 281 -381 15 -61 22 -226 12 -237 -3 -3 -22 -3 -43 -1 l-39 4
-1 86 c-1 102 -13 152 -58 247 -51 107 -155 202 -274 250 -183 75 -400 73
-631 -4 -70 -24 -109 -31 -168 -31 l-77 0 30 20 c47 31 182 86 280 115 75 22
154 35 255 44 8 0 55 -4 103 -9z m2331 -19 c8 -12 98 -25 154 -22 23 1 42 -2
42 -7 0 -5 -11 -7 -25 -4 -14 2 -25 0 -25 -6 0 -6 -14 -10 -31 -10 -21 1 -26
4 -17 10 8 5 -2 6 -26 2 -31 -5 -37 -4 -31 6 6 10 4 12 -8 7 -9 -3 -26 2 -39
13 -13 11 -18 19 -11 20 6 0 14 -4 17 -9z m891 -25 c11 -3 83 -12 160 -20 132
-14 141 -16 163 -42 23 -26 24 -33 20 -158 -3 -127 -2 -131 18 -134 46 -7 93
138 80 241 -8 57 -2 59 72 16 115 -66 130 -177 46 -352 -48 -101 -43 -131 18
-101 55 28 129 162 149 270 7 32 13 65 15 72 5 18 82 -36 128 -90 79 -92 99
-184 58 -264 -30 -59 -128 -146 -188 -166 -48 -17 -163 -95 -193 -132 -11 -13
-16 -14 -22 -4 -14 22 -10 36 11 43 32 10 137 112 185 179 44 63 95 172 95
203 0 10 -16 -17 -34 -60 -19 -42 -60 -109 -91 -148 -57 -70 -159 -159 -183
-159 -6 0 -31 38 -54 84 l-42 84 31 64 c37 76 60 146 69 213 9 66 0 55 -21
-25 -26 -103 -105 -262 -105 -211 0 5 -34 60 -76 122 l-76 112 11 43 c13 52
14 189 1 159 -5 -11 -9 -42 -10 -70 0 -27 -6 -62 -13 -77 l-12 -27 -70 88
c-98 125 -120 132 -26 8 107 -142 104 -131 36 -123 -32 4 -90 18 -129 31 -47
17 -65 20 -55 10 23 -23 125 -55 196 -62 l66 -6 63 -97 c35 -54 64 -102 64
-108 0 -31 -227 -26 -323 7 -73 26 -65 10 11 -21 49 -19 76 -23 196 -23 l140
-1 23 -37 c12 -20 37 -68 55 -108 l32 -72 -32 -28 c-46 -42 -68 -37 -129 26
-29 30 -53 58 -53 62 0 9 -58 45 -77 49 -6 1 -41 14 -78 29 -36 14 -100 30
-142 35 -44 5 -82 14 -91 23 -20 21 -27 105 -12 165 l12 50 44 -20 c58 -25
108 -21 112 10 3 19 -6 27 -55 49 -74 33 -113 69 -113 104 0 14 13 72 29 127
16 56 32 120 36 142 5 31 11 40 23 36 10 -2 26 -7 37 -10z m-1492 -43 c-7 -2
-19 -2 -25 0 -7 3 -2 5 12 5 14 0 19 -2 13 -5z m245 -10 c-10 -2 -26 -2 -35 0
-10 3 -2 5 17 5 19 0 27 -2 18 -5z m-1860 -33 c204 -57 338 -188 387 -377 16
-59 20 -190 7 -208 -4 -6 -38 -29 -77 -52 -181 -107 -220 -185 -155 -309 17
-31 27 -60 23 -64 -13 -11 -83 -52 -83 -48 0 2 -2 57 -3 123 -2 88 -7 128 -19
150 -40 74 -92 94 -250 95 -64 0 -119 3 -121 8 -2 4 -7 24 -11 45 l-7 37 201
0 c219 0 244 5 292 56 41 44 48 75 48 212 0 145 -8 183 -47 225 -58 60 -67 62
-313 62 l-225 0 0 30 c0 27 4 31 40 37 69 12 236 0 313 -22z m-383 -19 c-5
-18 -14 -21 -62 -21 -31 0 -54 2 -51 5 7 7 112 43 116 39 2 -1 1 -12 -3 -23z
m1775 -6 c0 -9 -9 -15 -21 -15 -18 0 -19 2 -9 15 7 8 16 15 21 15 5 0 9 -7 9
-15z m187 -7 c-3 -8 -6 -5 -6 6 -1 11 2 17 5 13 3 -3 4 -12 1 -19z m293 2 c0
-18 -7 -20 -53 -20 -41 0 -58 5 -72 20 -18 20 -17 20 53 20 65 0 72 -2 72 -20z
m3160 5 c0 -3 -7 -16 -16 -30 -14 -21 -14 -24 3 -34 15 -9 13 -10 -13 -11 -24
0 -40 -9 -63 -35 -31 -36 -43 -26 -20 17 11 20 9 21 -20 15 -17 -4 -31 -3 -31
2 0 19 35 35 78 36 39 0 49 4 57 23 9 20 25 31 25 17z m157 -49 c-5 -31 -3
-34 26 -41 25 -6 28 -9 12 -12 -11 -2 -29 -6 -40 -8 -12 -2 -31 -23 -44 -46
-26 -45 -49 -42 -31 6 14 36 8 41 -24 19 -15 -9 -30 -14 -33 -10 -12 12 33 48
68 55 27 5 36 13 44 39 12 42 29 41 22 -2z m-332 -61 c14 -14 25 -30 25 -34 0
-15 27 -31 42 -26 9 3 21 17 28 29 11 22 48 46 70 46 5 0 10 -17 12 -37 3 -32
7 -38 26 -37 14 0 22 -5 22 -16 0 -43 53 -48 66 -7 12 39 35 57 75 57 33 0 40
4 45 25 l6 25 165 0 c180 0 220 -9 241 -55 10 -22 7 -26 -32 -49 -79 -46 -118
-113 -125 -216 l-6 -75 -115 -2 -115 -1 -3 -146 c-1 -80 -5 -146 -7 -146 -3 0
-26 15 -52 34 -101 71 -233 116 -344 116 l-58 0 -3 70 -3 70 -170 3 c-195 2
-216 9 -236 76 -14 49 -7 236 11 273 7 15 25 32 39 37 14 5 103 10 198 10 172
1 172 1 198 -24z m-4748 -5 c38 -25 45 -59 41 -199 -4 -189 21 -175 -326 -181
l-277 -5 0 -120 0 -120 213 -5 c207 -5 214 -6 232 -28 24 -29 34 -115 26 -210
-10 -125 -22 -130 -288 -126 -159 3 -188 1 -188 -11 0 -21 -93 -79 -175 -111
-55 -21 -93 -28 -177 -32 l-108 -5 0 539 c0 493 2 542 18 574 29 59 36 60 537
57 377 -2 454 -4 472 -17z m1350 -40 c79 -87 203 -106 203 -31 0 18 10 41 24
55 21 24 30 26 107 26 l84 0 20 -37 c25 -48 103 -92 161 -93 48 0 67 17 63 57
-2 17 5 37 16 51 18 20 28 22 118 22 96 0 99 -1 128 -29 27 -28 29 -35 31
-118 4 -150 0 -200 -18 -235 -16 -31 -97 -153 -447 -670 -81 -119 -147 -219
-147 -222 0 -3 142 -6 316 -6 l316 0 34 -34 34 -34 0 -129 c0 -144 -7 -164
-66 -189 -45 -19 -1060 -20 -1113 -1 -58 21 -71 60 -71 216 l0 135 83 125 c45
69 147 220 226 336 256 371 301 440 301 452 0 9 -73 12 -292 13 -326 1 -329 1
-349 68 -6 22 -9 86 -7 156 3 115 4 118 31 142 24 20 39 24 99 24 l70 0 45
-50z m-2474 -136 c-177 -222 -237 -344 -258 -524 -14 -114 31 -261 102 -340
53 -59 111 -95 194 -121 152 -47 380 -1 510 103 30 24 43 29 68 23 17 -4 33
-10 36 -15 15 -25 -141 -126 -254 -165 -139 -47 -333 -53 -365 -11 -15 21 -79
46 -115 46 -66 0 -191 140 -227 254 -24 75 -29 244 -10 336 19 87 95 249 159
336 24 33 73 91 108 129 l64 68 3 -48 c2 -35 -2 -55 -15 -71z m7687 96 c0 -11
-7 -20 -15 -20 -15 0 -21 21 -8 33 12 13 23 7 23 -13z m-335 -41 c0 -7 -8 -15
-17 -17 -18 -3 -25 18 -11 32 10 10 28 1 28 -15z m192 -9 c7 -39 56 -80 94
-80 34 0 89 25 89 41 0 19 22 -3 36 -37 18 -43 4 -82 -51 -143 -21 -23 -33
-41 -28 -41 5 0 14 5 21 12 15 15 37 -4 61 -51 28 -56 33 -88 19 -133 -11 -39
-11 -42 14 -63 15 -13 32 -25 38 -27 17 -5 0 -39 -19 -36 -9 2 -17 13 -19 25
-2 11 -12 29 -23 39 -15 14 -24 15 -43 6 -14 -6 -26 -21 -28 -34 -2 -12 -11
-24 -20 -26 -28 -5 -21 21 12 53 24 23 30 37 30 72 0 43 -22 113 -36 113 -3 0
-4 -13 -1 -29 l6 -29 -77 -7 c-42 -4 -105 -13 -140 -21 -35 -8 -65 -14 -68
-14 -2 0 -4 14 -4 30 0 40 -16 39 -22 -2 -10 -68 37 -168 79 -168 15 0 18 -26
3 -35 -5 -3 -16 6 -25 19 -20 31 -51 42 -70 26 -12 -10 -15 -9 -15 4 0 9 -9
34 -20 56 -22 44 -25 88 -7 140 11 33 14 35 52 32 39 -2 39 -2 -24 24 -81 34
-141 90 -141 130 0 42 15 54 49 41 58 -22 124 21 137 89 9 49 16 54 82 54 50
0 53 -1 59 -30z m-654 9 c88 -24 144 -114 134 -213 -7 -74 -40 -120 -105 -153
-45 -22 -61 -25 -113 -20 -80 7 -128 39 -163 108 -28 58 -32 97 -15 150 37
109 143 161 262 128z m-5076 -31 c-2 -7 -12 -38 -20 -69 -20 -68 -52 -116 -96
-146 -49 -33 -141 -31 -141 4 0 18 53 67 103 95 36 21 48 38 27 38 -15 0 -92
-39 -112 -58 -17 -14 -18 -13 -19 9 -3 59 13 81 86 115 57 27 181 35 172 12z
m-1811 -235 c-6 -14 -116 -20 -116 -5 0 12 40 74 79 122 l36 45 3 -74 c2 -41
1 -80 -2 -88z m-240 72 c-15 -25 -30 -45 -35 -45 -4 0 -25 15 -47 34 l-39 34
60 11 c33 7 65 14 70 15 19 6 17 -3 -9 -49z m8184 -30 c18 -22 5 -72 -36 -134
-44 -65 -37 -76 48 -76 41 0 63 -5 66 -13 3 -9 -3 -11 -22 -6 -33 8 -46 -19
-21 -46 9 -10 14 -24 10 -29 -11 -19 -23 -12 -34 22 -9 26 -25 42 -72 68 -62
36 -67 47 -44 103 7 16 5 18 -12 14 -15 -4 -24 1 -32 19 -10 21 -8 27 11 43
27 23 39 24 57 8 11 -11 13 -10 8 5 -11 30 51 48 73 22z m-2820 -76 c0 -26 -3
-29 -30 -29 -23 0 -29 3 -23 13 41 64 53 68 53 16z m-5110 -351 c0 -331 -1
-348 -18 -348 -28 0 -125 73 -156 118 -92 134 -100 343 -17 518 l28 59 81 0
82 0 0 -347z m6594 276 c46 -52 47 -56 30 -69 -11 -8 -22 -15 -26 -15 -21 -1
-57 -90 -64 -158 l-7 -73 -31 7 c-17 3 -53 14 -81 23 l-50 16 -3 150 c-1 82 0
155 2 162 4 9 30 13 93 13 l88 0 49 -56z m572 31 c-4 -14 -2 -25 4 -25 10 0
14 13 11 36 -1 8 13 8 49 1 l51 -10 -3 -38 c-1 -24 -7 -39 -15 -39 -7 0 -13
-4 -13 -10 0 -5 4 -10 9 -10 5 0 13 -9 16 -20 5 -16 -3 -30 -36 -59 -35 -31
-43 -45 -44 -72 0 -25 -5 -35 -19 -37 -16 -3 -18 0 -12 19 14 48 12 54 -16 52
-16 -1 -28 2 -28 8 0 5 11 9 25 9 27 0 85 25 85 37 0 3 -27 31 -61 61 -48 44
-59 60 -57 80 2 18 11 28 28 33 14 4 27 7 29 8 2 1 0 -10 -3 -24z m-6502 -3
c2 -4 7 -24 11 -45 7 -35 6 -37 -19 -37 -24 0 -26 3 -26 45 0 33 4 45 14 45 8
0 17 -3 20 -8z m826 -89 c17 -16 67 -77 113 -137 45 -60 87 -111 92 -112 6 -2
42 40 80 92 39 53 89 116 112 141 38 42 45 45 77 40 39 -6 176 -95 200 -129
26 -37 19 -72 -26 -137 -24 -33 -71 -100 -106 -150 -35 -49 -70 -95 -78 -102
-25 -21 -115 15 -222 89 -54 36 -128 79 -167 96 -64 28 -80 31 -181 31 l-111
0 -31 50 c-51 80 -41 109 57 181 67 48 114 73 143 74 10 0 31 -12 48 -27z
m3734 7 c101 -26 169 -63 233 -127 104 -105 153 -232 153 -398 0 -251 -129
-442 -349 -517 -79 -26 -228 -31 -306 -9 -171 48 -298 169 -357 339 -31 89
-33 277 -4 362 64 190 199 316 380 355 88 19 162 18 250 -5z m771 -5 c199 -51
341 -178 540 -487 184 -285 404 -391 537 -258 34 34 38 43 38 90 0 52 -29 120
-51 120 -10 0 -11 57 0 83 6 16 11 13 45 -20 147 -146 73 -371 -131 -399 -63
-8 -161 16 -228 57 -80 48 -182 149 -190 186 -6 30 -47 85 -71 94 -5 2 -43 54
-84 114 -95 142 -212 259 -302 303 -140 69 -288 77 -449 26 l-81 -26 -24 23
c-13 12 -24 26 -24 30 0 10 117 52 185 65 86 17 221 17 290 -1z m-1785 -15 c8
-5 11 -10 5 -10 -5 0 -17 5 -25 10 -8 5 -10 10 -5 10 6 0 17 -5 25 -10z m-430
-24 c0 -3 -4 -8 -10 -11 -5 -3 -10 -1 -10 4 0 6 5 11 10 11 6 0 10 -2 10 -4z
m-4210 -38 c36 -19 46 -29 48 -53 l3 -30 -68 3 c-74 3 -154 -15 -161 -37 -4
-11 0 -12 14 -6 11 4 59 10 107 13 108 6 124 -4 82 -48 -41 -43 -104 -64 -166
-57 -50 6 -189 63 -189 77 0 4 29 35 64 68 97 90 181 112 266 70z m7395 -22
c32 -32 37 -83 33 -396 l-3 -265 -59 -3 c-82 -4 -149 30 -243 124 l-73 73 0
211 c0 215 7 259 42 273 7 3 73 6 146 6 127 1 134 0 157 -23z m-2351 -1 c4
-11 -26 -73 -61 -124 -2 -2 -6 -2 -9 1 -7 8 16 87 34 116 17 26 28 28 36 7z
m1401 -14 c69 -24 139 -69 213 -135 l52 -48 0 -364 0 -364 -29 -32 -29 -33
-171 0 -171 0 -27 28 -28 27 -3 477 -3 476 69 -6 c38 -3 95 -15 127 -26z
m1321 -67 c-7 -19 -25 -18 -33 1 -3 9 2 22 13 30 16 12 19 12 22 -1 2 -8 1
-22 -2 -30z m-2796 32 c0 -15 -14 -35 -21 -30 -15 9 -10 34 6 34 8 0 15 -2 15
-4z m-959 -72 c-11 -15 -21 -24 -21 -20 0 12 33 57 37 52 3 -3 -4 -17 -16 -32z
m2919 -54 c20 -5 26 -14 28 -43 3 -31 0 -37 -17 -37 -22 0 -47 23 -74 70 l-19
31 29 -7 c15 -4 39 -10 53 -14z m-4957 -60 c32 -12 100 -50 150 -85 150 -101
169 -110 267 -110 77 0 93 4 165 36 83 38 178 64 209 58 15 -4 14 -9 -13 -46
-19 -26 -42 -45 -58 -49 -16 -3 -68 -25 -118 -47 -85 -39 -95 -42 -185 -42
-86 0 -101 3 -161 31 -36 17 -104 57 -150 89 -127 87 -157 98 -269 99 -83 1
-102 -3 -153 -26 -61 -29 -155 -115 -182 -168 -14 -27 -20 -30 -66 -30 l-50 0
26 49 c61 111 174 210 285 249 84 29 214 26 303 -8z m2502 -36 c61 -24 71
-210 14 -266 -59 -59 -130 -19 -143 81 -18 135 40 219 129 185z m2485 -34 c0
-11 -2 -20 -5 -20 -2 0 -9 9 -15 20 -9 16 -8 20 5 20 8 0 15 -9 15 -20z
m-5015 -55 c28 -12 94 -52 149 -88 113 -77 196 -107 292 -107 l63 0 39 -52
c169 -231 169 -234 -2 -349 -42 -28 -69 -39 -95 -39 -44 0 -53 8 -171 165 -45
61 -86 113 -89 117 -4 4 -51 -51 -106 -123 -54 -72 -109 -138 -122 -146 -36
-24 -86 -10 -166 44 -89 61 -114 99 -98 151 6 20 65 109 131 197 66 88 120
164 120 169 0 5 -10 23 -23 40 -41 54 -41 56 -5 50 18 -4 56 -16 83 -29z
m4894 -20 c19 -31 32 -57 30 -58 -2 -1 -18 -12 -36 -25 -18 -12 -35 -22 -38
-22 -3 0 -5 36 -5 80 0 44 4 80 8 80 4 0 23 -25 41 -55z m-5076 4 c16 -23 26
-46 24 -53 -3 -6 -32 -48 -66 -94 l-61 -83 -39 31 c-21 17 -54 33 -75 37 -20
3 -39 10 -42 15 -8 13 40 82 80 114 44 35 116 74 136 74 8 -1 28 -19 43 -41z
m767 1 c-24 -16 -31 -11 -19 11 8 16 14 18 22 10 9 -9 8 -14 -3 -21z m-1150
-45 c0 -3 -11 -28 -25 -55 l-25 -50 -140 0 -140 0 0 32 c0 19 9 41 22 55 21
22 28 23 165 23 79 0 143 -2 143 -5z m5530 -55 c0 -4 -11 -33 -25 -64 -39 -88
-29 -100 14 -17 36 72 39 74 51 52 18 -34 16 -103 -4 -137 -18 -29 -87 -87
-118 -99 -38 -15 -58 160 -26 221 24 45 108 79 108 44z m-4210 6 c0 -3 -4 -8
-10 -11 -5 -3 -10 -1 -10 4 0 6 5 11 10 11 6 0 10 -2 10 -4z m-58 -41 c10 -22
8 -32 -10 -63 -11 -20 -25 -37 -31 -37 -11 0 -61 63 -61 77 0 7 68 47 83 48 4
0 13 -11 19 -25z m788 -16 c0 -5 -12 -9 -26 -9 -22 0 -24 2 -14 14 12 15 40
11 40 -5z m1507 -1 c-3 -8 -6 -5 -6 6 -1 11 2 17 5 13 3 -3 4 -12 1 -19z
m-3694 -78 c363 0 357 3 357 -208 0 -141 -14 -174 -80 -192 -28 -7 -184 -10
-483 -8 -409 3 -445 4 -471 21 -46 31 -56 71 -56 227 l0 140 86 0 c109 0 199
21 294 68 l75 37 3 -42 3 -43 272 0z m-859 44 c26 -10 19 -19 -35 -39 -28 -11
-58 -29 -67 -39 -16 -18 -16 -19 3 -11 117 47 146 55 151 40 16 -40 -66 -105
-132 -105 -59 0 -154 21 -154 34 0 18 60 86 94 107 31 19 107 26 140 13z
m4093 -90 c-3 -3 -12 -4 -19 -1 -8 3 -5 6 6 6 11 1 17 -2 13 -5z m2732 -117
c50 -24 83 -32 144 -35 l79 -5 -6 -66 c-5 -53 -11 -70 -32 -88 -23 -21 -34
-23 -157 -23 -142 1 -158 5 -177 54 -5 15 -10 81 -10 147 l0 119 48 -37 c26
-20 76 -50 111 -66z m-249 34 l0 -59 -80 -4 c-44 -2 -80 0 -80 5 0 4 6 7 13 8
6 0 41 24 77 54 36 30 66 54 68 54 1 1 2 -26 2 -58z m-1945 -27 l27 -46 -38
-40 c-22 -21 -71 -61 -110 -88 -136 -94 -269 -138 -444 -147 -137 -7 -228 6
-357 49 l-94 31 7 61 c4 33 8 63 10 65 2 3 23 -10 47 -28 199 -151 501 -164
703 -29 78 52 140 116 181 186 14 23 29 40 33 37 4 -3 20 -26 35 -51z m1059
-94 c71 -96 109 -198 114 -306 5 -110 -11 -176 -64 -255 -67 -103 -200 -163
-311 -140 -149 30 -232 123 -233 260 0 78 24 134 80 185 76 69 185 73 260 10
34 -29 36 -36 14 -58 -19 -20 -29 -20 -48 -1 -38 39 -92 44 -153 14 -55 -26
-83 -77 -83 -149 0 -65 18 -108 63 -147 93 -81 220 -70 319 28 45 45 60 68 74
114 36 125 1 288 -86 403 -40 52 -40 53 -23 77 10 13 21 25 26 25 4 0 27 -27
51 -60z m1462 33 c19 -25 17 -33 -6 -33 -15 0 -20 7 -20 25 0 29 8 32 26 8z
m-571 -28 c0 -18 -5 -30 -12 -29 -7 1 -47 2 -88 3 -71 1 -75 2 -75 24 0 13 3
27 7 31 4 4 43 5 88 4 l80 -3 0 -30z m-1863 -68 c-32 -37 -177 -144 -227 -170
-123 -62 -229 -95 -321 -102 -27 -1 -77 -6 -111 -10 -117 -14 -337 27 -478 90
l-58 25 39 34 38 33 68 -28 c116 -48 208 -64 358 -62 158 1 243 20 377 83 86
40 150 83 228 153 l40 36 32 -31 c31 -30 32 -32 15 -51z m-867 15 c-3 -3 -11
0 -18 7 -9 10 -8 11 6 5 10 -3 15 -9 12 -12z m3403 -38 c87 -69 112 -115 112
-208 0 -36 -5 -77 -11 -93 l-11 -28 -16 25 c-9 14 -42 51 -74 83 -86 86 -174
119 -213 81 -27 -27 -13 -46 68 -100 150 -98 200 -170 177 -254 -14 -51 -65
-133 -107 -173 l-30 -28 -7 41 c-24 151 -212 361 -241 270 -5 -15 11 -48 59
-122 87 -133 115 -233 78 -283 -14 -19 -83 -75 -92 -75 -6 0 -10 24 -10 53 0
105 -47 207 -96 207 -36 0 -39 -36 -10 -129 44 -140 33 -172 -74 -219 -38 -18
-74 -32 -78 -32 -5 0 -30 -14 -56 -31 -27 -16 -49 -29 -50 -27 -2 2 -17 28
-36 58 -18 30 -52 80 -75 110 -50 65 -75 112 -75 139 0 28 46 79 107 118 29
18 57 42 63 53 15 28 -4 60 -36 60 -56 0 -151 -58 -183 -111 l-18 -30 -17 59
c-24 86 -21 168 6 208 41 60 135 97 276 110 87 8 121 28 104 61 -24 43 -132
56 -250 28 -63 -15 -155 -56 -167 -75 -15 -25 -25 -5 -25 50 l0 59 43 19 c53
23 103 80 117 132 11 40 11 40 59 40 88 0 110 -8 117 -46 9 -47 64 -108 112
-122 22 -7 72 -12 111 -12 40 0 71 -4 69 -9 -1 -5 -28 -59 -58 -120 l-55 -111
-50 6 c-68 8 -157 -10 -232 -47 -76 -37 -85 -58 -10 -24 58 27 167 47 233 44
24 -2 44 -3 44 -4 0 -1 -19 -51 -41 -111 -53 -140 -118 -394 -101 -394 4 0 27
69 51 153 51 179 119 349 200 502 l59 110 51 6 c27 4 65 15 83 26 40 23 78 86
78 131 0 52 41 44 128 -24z m-5419 -23 c8 -14 6 -23 -9 -36 -20 -18 -20 -17
-20 18 0 40 13 48 29 18z m495 -112 c23 -10 62 -19 87 -19 40 0 47 -4 58 -26
11 -25 8 -30 -57 -99 -66 -69 -112 -146 -127 -210 -4 -17 9 3 30 44 37 72 159
216 175 206 14 -9 80 -228 105 -346 17 -83 24 -103 24 -72 1 63 -46 265 -85
368 -17 42 110 -8 256 -101 14 -9 5 2 -19 25 -48 45 -128 86 -201 104 -46 11
-51 15 -69 59 l-20 48 107 0 c92 0 114 -4 158 -24 109 -51 183 -149 169 -225
-9 -47 -64 -161 -79 -161 -6 0 -22 9 -36 20 -14 11 -40 20 -57 20 -46 0 -44
-29 5 -72 56 -48 75 -80 63 -109 -5 -14 -36 -67 -70 -119 -33 -51 -62 -98 -64
-103 -2 -6 -21 1 -42 14 -22 14 -74 41 -116 61 -41 21 -84 47 -95 59 -27 30
-23 107 10 188 29 71 32 103 13 119 -38 32 -108 -70 -128 -185 -10 -59 -12
-62 -31 -52 -45 24 -108 93 -124 135 -29 77 -1 193 76 313 46 71 50 91 17 91
-71 0 -180 -143 -223 -289 l-22 -76 -64 65 c-67 69 -111 147 -123 218 -6 35
-2 53 20 98 15 31 32 57 39 60 6 2 29 -5 51 -16 21 -11 50 -20 62 -20 28 0 28
-2 0 -48 -26 -41 -47 -94 -24 -58 48 73 88 113 160 160 l82 53 34 -40 c19 -22
53 -48 75 -58z m736 -32 c0 -13 -29 -119 -34 -125 -2 -1 -29 24 -62 55 -32 32
-68 63 -79 70 -16 10 -3 12 78 12 74 1 97 -2 97 -12z m1046 -163 c-17 -51 -21
-98 -8 -90 5 3 17 32 27 66 23 77 40 93 66 61 43 -52 18 -132 -67 -216 -54
-53 -59 -55 -71 -39 -16 22 -43 109 -43 138 1 43 38 106 72 120 18 8 35 13 37
11 2 -2 -4 -25 -13 -51z m1180 -260 l25 -17 -53 -47 c-29 -26 -50 -51 -45 -56
4 -4 20 4 35 18 54 50 92 70 117 64 28 -7 31 -23 11 -69 -30 -69 -104 -112
-218 -124 -89 -9 -92 -5 -64 72 30 83 68 132 120 156 50 23 42 22 72 3z"/>
<path d="M7661 5724 c-26 -33 -26 -55 -3 -85 13 -15 30 -22 51 -22 37 0 59 18
63 53 3 22 0 25 -24 22 -22 -3 -28 1 -28 15 0 11 5 24 12 31 9 9 5 12 -19 12
-22 0 -38 -8 -52 -26z"/>
<path d="M5024 5581 c-43 -19 -86 -68 -99 -110 -12 -40 -7 -109 11 -147 23
-47 84 -91 140 -100 122 -18 228 95 209 222 -18 120 -147 187 -261 135z m164
-38 c65 -49 86 -115 57 -188 -35 -93 -142 -129 -227 -77 -98 61 -91 215 12
273 44 24 120 20 158 -8z"/>
<path d="M5033 5485 c-34 -24 -47 -76 -29 -118 33 -81 142 -76 164 8 5 17 7
38 4 47 -3 14 -7 15 -23 5 -27 -17 -56 12 -40 41 6 10 7 22 4 26 -12 11 -58 6
-80 -9z"/>
<path d="M4509 5457 c-37 -24 -79 -97 -79 -137 0 -67 58 -170 96 -170 20 0 18
8 -16 46 -68 78 -46 209 40 235 48 15 83 6 115 -29 52 -56 15 -157 -57 -150
-44 4 -76 48 -60 83 8 17 20 25 37 25 27 0 33 -18 13 -38 -16 -16 -1 -29 20
-16 24 16 27 42 6 65 -34 38 -95 13 -110 -47 -8 -32 9 -66 46 -87 98 -58 199
42 159 157 -28 81 -135 113 -210 63z"/>
<path d="M4240 5389 c-41 -17 -80 -60 -112 -124 -17 -33 -42 -72 -56 -87 -14
-15 -22 -31 -18 -35 15 -16 63 29 97 91 45 83 61 100 105 114 43 13 75 3 98
-30 39 -55 4 -122 -62 -116 -34 3 -37 6 -40 36 -3 27 0 32 17 32 12 0 21 -7
21 -16 0 -24 35 -12 38 14 7 48 -88 55 -109 8 -15 -32 6 -74 48 -99 28 -16 38
-17 68 -7 67 22 91 82 61 155 -24 57 -99 88 -156 64z"/>
<path d="M5402 5268 c6 -17 36 -34 44 -25 4 4 -1 14 -12 22 -23 18 -37 19 -32
3z"/>
<path d="M3848 4883 c7 -3 16 -2 19 1 4 3 -2 6 -13 5 -11 0 -14 -3 -6 -6z"/>
<path d="M9210 4580 c0 -5 5 -10 10 -10 6 0 10 5 10 10 0 6 -4 10 -10 10 -5 0
-10 -4 -10 -10z"/>
<path d="M9100 4564 c0 -8 5 -12 10 -9 6 3 10 10 10 16 0 5 -4 9 -10 9 -5 0
-10 -7 -10 -16z"/>
<path d="M9360 4535 c-59 -59 -239 -85 -329 -49 -54 22 -76 11 -26 -12 31 -15
64 -19 150 -19 101 0 114 2 160 27 62 34 85 52 85 67 0 18 -13 13 -40 -14z"/>
<path d="M9582 4429 c2 -6 8 -10 13 -10 5 0 11 4 13 10 2 6 -4 11 -13 11 -9 0
-15 -5 -13 -11z"/>
<path d="M8840 4310 c0 -5 5 -10 10 -10 6 0 10 5 10 10 0 6 -4 10 -10 10 -5 0
-10 -4 -10 -10z"/>
<path d="M6719 3917 c-55 -36 -83 -105 -83 -202 0 -142 61 -225 167 -225 68 0
109 27 143 95 23 49 26 63 23 142 -5 102 -26 155 -79 191 -45 31 -124 30 -171
-1z m115 -63 c16 -6 22 -30 8 -36 -12 -5 -70 -82 -96 -127 l-23 -42 -6 46
c-12 107 47 186 117 159z m50 -60 c9 -24 7 -147 -3 -163 -11 -18 -87 -9 -109
13 -13 13 -12 19 7 51 25 43 83 115 92 115 4 0 10 -7 13 -16z m-34 -203 c0
-23 -58 -27 -86 -6 -17 13 -15 14 34 15 28 0 52 -4 52 -9z"/>
<path d="M9792 5055 c-16 -13 -40 -48 -53 -77 -21 -47 -24 -67 -23 -170 0 -92
-2 -118 -13 -118 -7 0 -13 10 -14 23 -1 21 -1 21 -8 -3 -7 -24 -8 -24 -29 17
-12 23 -26 44 -31 48 -6 3 1 -14 14 -37 20 -35 24 -52 19 -89 -7 -53 11 -79
54 -79 24 0 29 -6 46 -61 27 -86 105 -197 128 -183 5 3 8 -1 8 -9 0 -14 20
-27 42 -27 7 0 9 19 4 53 l-6 54 51 -25 c65 -32 145 -40 187 -18 112 58 58
224 -78 242 -28 4 -50 10 -50 14 0 3 12 17 26 31 46 42 74 115 74 193 0 90
-16 142 -58 184 -32 31 -38 33 -91 30 -41 -2 -63 2 -81 15 -35 25 -83 22 -118
-8z m266 -51 c36 -23 55 -80 56 -159 0 -86 -34 -168 -88 -211 -49 -39 -157
-104 -173 -104 -28 0 -11 18 39 41 61 28 126 83 139 117 12 30 3 62 -17 62
-19 0 -18 6 8 41 28 38 30 99 4 128 -24 26 -91 28 -125 5 -25 -18 -71 -106
-71 -139 0 -11 -10 -45 -21 -75 l-20 -55 4 70 c8 133 66 242 150 284 44 23 74
21 115 -5z m-279 -45 c-16 -10 -23 -4 -14 10 3 6 11 8 17 5 6 -4 5 -9 -3 -15z
m37 -17 c-17 -16 -18 -16 -5 5 7 12 15 20 18 17 3 -2 -3 -12 -13 -22z m-26 -3
c0 -5 -4 -7 -10 -4 -6 3 -7 -1 -4 -9 3 -9 10 -13 15 -10 13 8 10 -7 -6 -36
-14 -25 -14 -25 -15 -2 0 12 -4 22 -10 22 -14 0 -12 37 3 43 20 9 27 8 27 -4z
m218 -31 c19 -19 14 -82 -7 -110 -27 -34 -98 -65 -119 -51 -40 24 -11 136 42
161 29 15 70 14 84 0z m-63 -183 c48 13 59 14 66 3 12 -18 11 -19 -9 -51 -31
-46 -170 -136 -186 -120 -9 9 -7 59 5 129 l11 63 28 -20 c27 -21 29 -21 85 -4z
m204 -177 c60 -42 72 -116 26 -155 -27 -24 -91 -31 -145 -16 l-25 7 25 6 c16
4 26 14 28 28 3 18 8 21 27 16 52 -13 89 38 60 82 -14 21 -23 25 -50 22 -27
-3 -36 1 -43 17 -10 21 -8 21 32 15 23 -3 53 -13 65 -22z m-114 -9 c4 -5 0
-18 -9 -28 -20 -22 -20 -35 -1 -51 19 -16 20 -50 1 -50 -35 0 -128 45 -146 71
l-20 27 42 16 c75 27 123 32 133 15z m96 -41 c15 -29 -10 -53 -46 -44 -36 9
-44 35 -16 57 25 20 47 16 62 -13z m-321 7 c0 -2 -10 -10 -22 -16 -21 -11 -22
-11 -9 4 13 16 31 23 31 12z m60 -80 c0 -2 -10 -10 -22 -16 -21 -11 -22 -11
-9 4 13 16 31 23 31 12z"/>
<path d="M9557 4923 c-15 -14 -6 -22 21 -17 22 5 31 0 50 -26 13 -17 30 -48
37 -68 7 -20 14 -30 14 -22 2 62 -92 164 -122 133z"/>
<path d="M9493 4853 c-24 -9 -13 -23 13 -17 18 5 34 0 52 -13 37 -27 52 -35
52 -29 0 9 -64 53 -85 59 -11 3 -26 3 -32 0z"/>
</g>
</svg>
